<svg width="687" height="123" viewBox="0 0 687 123" fill="none" xmlns="http://www.w3.org/2000/svg">
<path d="M604.281 120.629H627.138V83.6726L659.033 120.629H687.001L649.87 78.0372L681.588 41.1064H656.138L627.138 75.1448V0L604.281 2.99396V120.629Z" fill="#0966FF"/>
<path fill-rule="evenodd" clip-rule="evenodd" d="M551.678 39.0691C526.303 39.0691 508.682 56.1255 508.682 80.855C508.682 105.585 526.303 122.641 551.678 122.641C577.053 122.641 594.674 105.585 594.674 80.855C594.674 56.1255 577.053 39.0691 551.678 39.0691ZM551.678 103.169C539.922 103.169 531.866 94.0876 531.866 80.855C531.866 67.6224 539.922 58.5406 551.678 58.5406C563.434 58.5406 571.489 67.6224 571.489 80.855C571.489 94.0876 563.434 103.169 551.678 103.169Z" fill="#0966FF"/>
<path fill-rule="evenodd" clip-rule="evenodd" d="M458.678 39.0691C433.303 39.0691 415.682 56.1255 415.682 80.855C415.682 105.585 433.303 122.641 458.678 122.641C484.053 122.641 501.674 105.585 501.674 80.855C501.674 56.1255 484.053 39.0691 458.678 39.0691ZM458.678 103.169C446.922 103.169 438.866 94.0876 438.866 80.855C438.866 67.6224 446.922 58.5406 458.678 58.5406C470.434 58.5406 478.489 67.6224 478.489 80.855C478.489 94.0876 470.434 103.169 458.678 103.169Z" fill="#0966FF"/>
<path fill-rule="evenodd" clip-rule="evenodd" d="M371.199 39.0694C360.627 39.0694 351.866 43.2202 346.378 50.8174V0L323.496 2.96838V120.603H343.786L344.188 108.327C349.601 117.484 359.292 122.641 371.199 122.641C392.899 122.641 408.783 105.031 408.783 80.8553C408.783 56.679 392.974 39.0694 371.199 39.0694ZM365.787 103.17C354.031 103.17 345.976 94.0879 345.976 80.8553C345.976 67.6227 354.031 58.5409 365.787 58.5409C377.543 58.5409 385.599 67.6227 385.599 80.8553C385.599 94.0879 377.543 103.17 365.787 103.17Z" fill="#0966FF"/>
<path fill-rule="evenodd" clip-rule="evenodd" d="M277.68 104.201C265.547 104.201 256.837 98.5654 253.867 88.8552H310.179C310.734 85.8868 311.111 82.3644 311.111 79.9996C311.111 54.4146 296.787 39.0691 272.721 39.0691C248.429 39.0691 231.613 56.1255 231.613 80.855C231.613 105.912 249.235 122.641 275.39 122.641C288.933 122.641 302.099 118.113 310.33 110.591L302.099 96.1006C294.119 101.61 286.29 104.201 277.68 104.201ZM272.57 56.8298C283.143 56.8298 289.89 63.2446 289.89 73.1819L253.388 73.2578C255.579 62.717 262.4 56.8298 272.57 56.8298Z" fill="#0966FF"/>
<path d="M227.387 110.289C219.231 118.138 207.651 122.666 195.82 122.666C170.998 122.666 153.453 105.283 153.428 80.8802C153.428 56.4024 170.973 39.0942 195.794 39.0942C207.072 39.0942 218.45 43.1699 225.801 49.8109L216.713 65.1573C211.175 61.1568 204.353 58.8928 198.085 58.8928C185.398 58.8928 176.94 67.7483 176.94 80.8802C176.94 94.012 185.398 102.868 198.085 102.868C204.907 102.868 212.106 100.201 218.45 95.2704L227.387 110.289Z" fill="#0966FF"/>
<path fill-rule="evenodd" clip-rule="evenodd" d="M123.14 41.1065L122.738 53.4844C117.325 44.2515 107.634 39.0942 95.7268 39.0942C73.9516 39.0942 58.1426 56.7046 58.1426 80.8802C58.1426 105.056 74.0524 122.666 95.7268 122.666C107.634 122.666 117.35 117.509 122.738 108.352L123.14 120.628H143.43V41.1065H123.14ZM101.139 103.17C89.383 103.17 81.3273 94.088 81.3273 80.8554C81.3273 67.6228 89.383 58.541 101.139 58.541C112.895 58.541 120.95 67.6228 120.95 80.8554C120.95 94.088 112.869 103.17 101.139 103.17Z" fill="#0966FF"/>
<path d="M35.8666 41.2556H56.4331L52.9092 60.4754H35.8914V120.602H13.0594V60.4506H0.0703125V41.2301H13.0594V32.9533C13.0594 11.5447 22.7511 1.63306 43.7711 1.63306C47.7486 1.63306 54.6203 2.41254 57.4402 3.19279V20.6265C55.9547 20.4754 53.362 20.4003 50.1653 20.4003C39.8441 20.4003 35.8666 24.2992 35.8666 34.4627V41.2556Z" fill="#0966FF"/>
</svg>
